<svg xmlns="http://www.w3.org/2000/svg" viewBox="0 0 800 500" width="800" height="500">
  <defs>
    <linearGradient id="sky" x1="0" y1="0" x2="0" y2="1">
      <stop offset="0%" stop-color="#dce8ef"/>
      <stop offset="100%" stop-color="#c5d6e2"/>
    </linearGradient>
    <linearGradient id="park" x1="0" y1="0" x2="1" y2="1">
      <stop offset="0%" stop-color="#b8d4b0"/>
      <stop offset="100%" stop-color="#9fc49a"/>
    </linearGradient>
    <filter id="soft" x="-20%" y="-20%" width="140%" height="140%">
      <feGaussianBlur stdDeviation="1.2"/>
    </filter>
  </defs>
  <rect width="800" height="500" fill="url(#sky)"/>
  <rect x="0" y="300" width="800" height="200" fill="#e8e2d8"/>
  <rect x="520" y="40" width="220" height="160" rx="12" fill="url(#park)" opacity="0.85"/>
  <path d="M0 220h800M0 160h800M0 280h800M0 340h800" stroke="#f5f8fa" stroke-width="18" opacity="0.9"/>
  <path d="M120 0v500M260 0v500M400 0v500M540 0v500M680 0v500" stroke="#f5f8fa" stroke-width="14" opacity="0.85"/>
  <path d="M0 220h800M0 160h800M0 280h800M0 340h800" stroke="#d4dde4" stroke-width="3"/>
  <path d="M120 0v500M260 0v500M400 0v500M540 0v500M680 0v500" stroke="#d4dde4" stroke-width="2"/>
  <path d="M80 120c60 20 120 10 180 40s120 0 180 24 120 8 200-8" fill="none" stroke="#8bb8d0" stroke-width="10" opacity="0.55"/>
  <path d="M40 360c100-20 180-10 260 8s180 18 280 0 140-12 220-28" fill="none" stroke="#8bb8d0" stroke-width="8" opacity="0.45"/>
  <circle cx="392" cy="248" r="34" fill="#149eca" opacity="0.18" filter="url(#soft)"/>
  <circle cx="392" cy="248" r="10" fill="#149eca" stroke="#fff" stroke-width="4"/>
  <circle cx="392" cy="248" r="3" fill="#fff"/>
  <rect x="318" y="188" width="148" height="34" rx="8" fill="rgba(10,15,20,0.72)"/>
  <text x="392" y="210" text-anchor="middle" fill="#fff" font-family="system-ui,sans-serif" font-size="15" font-weight="600">Touchlabs - Bologna</text>
</svg>
